STARTFONT 2.1
FONT -Fondu-Courier-Medium-R-Normal--24-230-75-75-P-141-MacRoman-1
SIZE 23 75 75
FONTBOUNDINGBOX 19 22 0 -5
COMMENT Created by Fondu from a mac NFNT/FONT resource
STARTPROPERTIES 17
FOUNDRY "Fondu"
FAMILY_NAME "Courier"
WEIGHT_NAME "Medium"
SLANT "R"
SETWIDTH_NAME "Normal"
ADD_STYLE_NAME ""
PIXEL_SIZE 24
POINT_SIZE 230
RESOLUTION_X 75
RESOLUTION_Y 75
SPACING "P"
AVERAGE_WIDTH 141
CHARSET_REGISTRY "MacRoman"
CHARSET_ENCODING "1"
FONT_ASCENT 17
FONT_DESCENT 5
FACE_NAME "Courier"
ENDPROPERTIES
CHARS 223
STARTCHAR space
ENCODING 32
SWIDTH 600 0
DWIDTH 14 0
BBX 0 0 0 -5
BITMAP
ENDCHAR
STARTCHAR exclam
ENCODING 33
SWIDTH 600 0
DWIDTH 14 0
BBX 1 15 7 0
BITMAP
80
80
80
80
80
80
80
80
80
80
00
00
00
80
80
ENDCHAR
STARTCHAR quotedbl
ENCODING 34
SWIDTH 600 0
DWIDTH 14 0
BBX 6 4 4 11
BITMAP
84
84
84
84
ENDCHAR
STARTCHAR numbersign
ENCODING 35
SWIDTH 600 0
DWIDTH 14 0
BBX 11 14 2 1
BITMAP
0880
0880
0880
0880
7FE0
1100
1100
1100
1100
FFC0
2200
2200
2200
2200
ENDCHAR
STARTCHAR dollar
ENCODING 36
SWIDTH 600 0
DWIDTH 14 0
BBX 8 20 3 -3
BITMAP
08
08
3D
43
81
81
80
40
30
0C
02
01
01
81
81
C2
BC
08
08
08
ENDCHAR
STARTCHAR percent
ENCODING 37
SWIDTH 600 0
DWIDTH 14 0
BBX 12 16 1 0
BITMAP
3800
4400
8210
8220
8240
4480
3900
0200
0400
09C0
1220
2410
4410
8410
0220
01C0
ENDCHAR
STARTCHAR ampersand
ENCODING 38
SWIDTH 600 0
DWIDTH 14 0
BBX 12 15 1 0
BITMAP
1800
2400
4200
4200
4000
2000
1000
2800
4420
8220
8140
8080
8140
4220
3C10
ENDCHAR
STARTCHAR quotesingle
ENCODING 39
SWIDTH 600 0
DWIDTH 14 0
BBX 1 4 5 11
BITMAP
80
80
80
80
ENDCHAR
STARTCHAR parenleft
ENCODING 40
SWIDTH 600 0
DWIDTH 14 0
BBX 4 20 5 -5
BITMAP
10
20
20
40
40
40
80
80
80
80
80
80
80
80
40
40
40
20
20
10
ENDCHAR
STARTCHAR parenright
ENCODING 41
SWIDTH 600 0
DWIDTH 14 0
BBX 4 20 5 -5
BITMAP
80
40
40
20
20
20
10
10
10
10
10
10
10
10
20
20
20
40
40
80
ENDCHAR
STARTCHAR asterisk
ENCODING 42
SWIDTH 600 0
DWIDTH 14 0
BBX 7 8 3 7
BITMAP
10
10
92
7C
38
28
44
82
ENDCHAR
STARTCHAR plus
ENCODING 43
SWIDTH 600 0
DWIDTH 14 0
BBX 9 9 2 1
BITMAP
0800
0800
0800
0800
FF80
0800
0800
0800
0800
ENDCHAR
STARTCHAR comma
ENCODING 44
SWIDTH 600 0
DWIDTH 14 0
BBX 4 5 3 -3
BITMAP
30
30
60
40
80
ENDCHAR
STARTCHAR hyphen
ENCODING 45
SWIDTH 600 0
DWIDTH 14 0
BBX 11 1 1 5
BITMAP
FFE0
ENDCHAR
STARTCHAR period
ENCODING 46
SWIDTH 600 0
DWIDTH 14 0
BBX 1 2 6 0
BITMAP
80
80
ENDCHAR
STARTCHAR slash
ENCODING 47
SWIDTH 600 0
DWIDTH 14 0
BBX 5 15 4 0
BITMAP
08
08
08
10
10
10
20
20
20
40
40
40
80
80
80
ENDCHAR
STARTCHAR zero
ENCODING 48
SWIDTH 600 0
DWIDTH 14 0
BBX 9 15 2 0
BITMAP
1C00
2200
4100
4100
8080
8080
8080
8080
8080
8080
8080
4100
4100
2200
1C00
ENDCHAR
STARTCHAR one
ENCODING 49
SWIDTH 600 0
DWIDTH 14 0
BBX 9 15 3 0
BITMAP
1800
2800
4800
0800
0800
0800
0800
0800
0800
0800
0800
0800
0800
0800
FF80
ENDCHAR
STARTCHAR two
ENCODING 50
SWIDTH 600 0
DWIDTH 14 0
BBX 9 15 2 0
BITMAP
1C00
6300
4100
8080
8080
0080
0100
0200
0400
0800
1000
2080
4080
8080
FF80
ENDCHAR
STARTCHAR three
ENCODING 51
SWIDTH 600 0
DWIDTH 14 0
BBX 9 15 3 0
BITMAP
3C00
4200
8100
0100
0100
0200
0E00
0100
0080
0080
0080
0080
8100
C300
3C00
ENDCHAR
STARTCHAR four
ENCODING 52
SWIDTH 600 0
DWIDTH 14 0
BBX 10 15 1 0
BITMAP
0100
0300
0500
0900
0900
1100
2100
2100
4100
8100
FFC0
0100
0100
0100
07C0
ENDCHAR
STARTCHAR five
ENCODING 53
SWIDTH 600 0
DWIDTH 14 0
BBX 9 15 3 0
BITMAP
FF00
8000
8000
8000
8000
BC00
C300
0100
0080
0080
0080
0080
8100
C300
3C00
ENDCHAR
STARTCHAR six
ENCODING 54
SWIDTH 600 0
DWIDTH 14 0
BBX 9 15 3 0
BITMAP
0700
1800
2000
4000
4000
9C00
A300
C100
8080
8080
8080
8080
4100
6300
1C00
ENDCHAR
STARTCHAR seven
ENCODING 55
SWIDTH 600 0
DWIDTH 14 0
BBX 8 15 3 0
BITMAP
FF
81
81
01
02
02
02
04
04
04
04
08
08
08
08
ENDCHAR
STARTCHAR eight
ENCODING 56
SWIDTH 600 0
DWIDTH 14 0
BBX 9 15 3 0
BITMAP
3E00
4100
8080
8080
8080
8080
4100
3E00
4100
8080
8080
8080
8080
4100
3E00
ENDCHAR
STARTCHAR nine
ENCODING 57
SWIDTH 600 0
DWIDTH 14 0
BBX 9 15 2 0
BITMAP
1C00
6300
4100
8080
8080
8080
8080
4180
6380
1C80
0100
0100
0200
0C00
7000
ENDCHAR
STARTCHAR colon
ENCODING 58
SWIDTH 600 0
DWIDTH 14 0
BBX 1 10 6 0
BITMAP
80
80
00
00
00
00
00
00
80
80
ENDCHAR
STARTCHAR semicolon
ENCODING 59
SWIDTH 600 0
DWIDTH 14 0
BBX 4 13 4 -3
BITMAP
10
10
00
00
00
00
00
00
30
30
60
40
80
ENDCHAR
STARTCHAR less
ENCODING 60
SWIDTH 600 0
DWIDTH 14 0
BBX 10 9 1 1
BITMAP
00C0
0300
0C00
3000
C000
3000
0C00
0300
00C0
ENDCHAR
STARTCHAR equal
ENCODING 61
SWIDTH 600 0
DWIDTH 14 0
BBX 12 5 1 3
BITMAP
FFF0
0000
0000
0000
FFF0
ENDCHAR
STARTCHAR greater
ENCODING 62
SWIDTH 600 0
DWIDTH 14 0
BBX 10 9 1 1
BITMAP
C000
3000
0C00
0300
00C0
0300
0C00
3000
C000
ENDCHAR
STARTCHAR question
ENCODING 63
SWIDTH 600 0
DWIDTH 14 0
BBX 9 15 2 0
BITMAP
3E00
4100
8080
8080
0080
0080
0100
0200
0400
0800
0800
0000
0000
0800
0800
ENDCHAR
STARTCHAR at
ENCODING 64
SWIDTH 600 0
DWIDTH 14 0
BBX 10 17 2 -2
BITMAP
1E00
2100
4080
4080
8040
83C0
8440
8440
8440
8440
83C0
8000
8000
4000
4080
2100
1E00
ENDCHAR
STARTCHAR A
ENCODING 65
SWIDTH 600 0
DWIDTH 14 0
BBX 14 15 0 0
BITMAP
0100
0100
0100
0280
0280
0440
0440
0820
0820
1FF0
1010
1010
2008
2008
FC7C
ENDCHAR
STARTCHAR B
ENCODING 66
SWIDTH 600 0
DWIDTH 14 0
BBX 12 15 1 0
BITMAP
FF80
2040
2020
2020
2020
2020
2040
3FC0
2020
2010
2010
2010
2010
2020
FFC0
ENDCHAR
STARTCHAR C
ENCODING 67
SWIDTH 600 0
DWIDTH 14 0
BBX 12 15 1 0
BITMAP
0F90
3070
6030
4010
8000
8000
8000
8000
8000
8000
8000
4000
6020
30C0
0F00
ENDCHAR
STARTCHAR D
ENCODING 68
SWIDTH 600 0
DWIDTH 14 0
BBX 12 15 1 0
BITMAP
FF00
40C0
4060
4020
4010
4010
4010
4010
4010
4010
4010
4020
4060
40C0
FF00
ENDCHAR
STARTCHAR E
ENCODING 69
SWIDTH 600 0
DWIDTH 14 0
BBX 11 15 1 0
BITMAP
FFE0
2020
2020
2020
2000
2200
2200
3E00
2200
2200
2000
2020
2020
2020
FFE0
ENDCHAR
STARTCHAR F
ENCODING 70
SWIDTH 600 0
DWIDTH 14 0
BBX 12 15 1 0
BITMAP
FFF0
2010
2010
2010
2000
2200
2200
3E00
2200
2200
2000
2000
2000
2000
FE00
ENDCHAR
STARTCHAR G
ENCODING 71
SWIDTH 600 0
DWIDTH 14 0
BBX 13 15 0 0
BITMAP
0FD0
3070
6030
4010
8000
8000
8000
8000
81F8
8010
8010
4010
6010
3020
0FC0
ENDCHAR
STARTCHAR H
ENCODING 72
SWIDTH 600 0
DWIDTH 14 0
BBX 13 15 0 0
BITMAP
F8F8
2020
2020
2020
2020
2020
2020
3FE0
2020
2020
2020
2020
2020
2020
FCF8
ENDCHAR
STARTCHAR I
ENCODING 73
SWIDTH 600 0
DWIDTH 14 0
BBX 9 15 2 0
BITMAP
FF80
0800
0800
0800
0800
0800
0800
0800
0800
0800
0800
0800
0800
0800
FF80
ENDCHAR
STARTCHAR J
ENCODING 74
SWIDTH 600 0
DWIDTH 14 0
BBX 11 15 1 0
BITMAP
1FE0
0080
0080
0080
0080
0080
0080
0080
0080
0080
8080
8080
8080
4100
3E00
ENDCHAR
STARTCHAR K
ENCODING 75
SWIDTH 600 0
DWIDTH 14 0
BBX 13 15 0 0
BITMAP
F8F8
2020
2040
2080
2100
2200
2400
2800
3400
2200
2100
2080
2040
2020
F8F8
ENDCHAR
STARTCHAR L
ENCODING 76
SWIDTH 600 0
DWIDTH 14 0
BBX 12 15 1 0
BITMAP
FE00
1000
1000
1000
1000
1000
1000
1000
1000
1000
1000
1010
1010
1010
FFF0
ENDCHAR
STARTCHAR M
ENCODING 77
SWIDTH 600 0
DWIDTH 14 0
BBX 13 15 0 0
BITMAP
E038
3060
3060
28A0
28A0
2520
2520
2220
2220
2020
2020
2020
2020
2020
F8F8
ENDCHAR
STARTCHAR N
ENCODING 78
SWIDTH 600 0
DWIDTH 14 0
BBX 13 15 0 0
BITMAP
F0F8
3020
2820
2820
2420
2420
2220
2220
2120
2120
20A0
20A0
2060
2060
F820
ENDCHAR
STARTCHAR O
ENCODING 79
SWIDTH 600 0
DWIDTH 14 0
BBX 12 15 1 0
BITMAP
0F00
30C0
6060
4020
8010
8010
8010
8010
8010
8010
8010
4020
6060
30C0
0F00
ENDCHAR
STARTCHAR P
ENCODING 80
SWIDTH 600 0
DWIDTH 14 0
BBX 11 15 1 0
BITMAP
FF00
20C0
2040
2020
2020
2020
2040
20C0
3F00
2000
2000
2000
2000
2000
FC00
ENDCHAR
STARTCHAR Q
ENCODING 81
SWIDTH 600 0
DWIDTH 14 0
BBX 12 15 1 0
BITMAP
0F00
30C0
6060
4020
8010
8010
8010
8010
8010
8010
8010
4120
40A0
30C0
0F20
ENDCHAR
STARTCHAR R
ENCODING 82
SWIDTH 600 0
DWIDTH 14 0
BBX 12 15 1 0
BITMAP
FF00
20C0
2040
2020
2020
2020
2040
20C0
3F00
2080
2040
2040
2020
2020
F810
ENDCHAR
STARTCHAR S
ENCODING 83
SWIDTH 600 0
DWIDTH 14 0
BBX 10 15 1 0
BITMAP
1E40
61C0
40C0
8040
8000
4000
3800
0700
0080
0040
0040
8040
C080
E180
9E00
ENDCHAR
STARTCHAR T
ENCODING 84
SWIDTH 600 0
DWIDTH 14 0
BBX 11 15 1 0
BITMAP
FFE0
8420
8420
8420
8420
0400
0400
0400
0400
0400
0400
0400
0400
0400
3F80
ENDCHAR
STARTCHAR U
ENCODING 85
SWIDTH 600 0
DWIDTH 14 0
BBX 14 15 0 0
BITMAP
F87C
2010
2010
2010
2010
2010
2010
2010
2010
2010
2010
2010
1020
1860
0780
ENDCHAR
STARTCHAR V
ENCODING 86
SWIDTH 600 0
DWIDTH 14 0
BBX 13 15 0 0
BITMAP
F8F8
2020
2020
1040
1040
1040
0880
0880
0880
0500
0500
0500
0200
0200
0200
ENDCHAR
STARTCHAR W
ENCODING 87
SWIDTH 600 0
DWIDTH 14 0
BBX 14 15 0 0
BITMAP
F07C
4010
4210
4210
4210
4510
2520
2520
28A0
28A0
28A0
1040
1040
1040
1040
ENDCHAR
STARTCHAR X
ENCODING 88
SWIDTH 600 0
DWIDTH 14 0
BBX 11 15 1 0
BITMAP
FBE0
2080
2080
1100
1100
0A00
0A00
0400
0A00
0A00
1100
1100
2080
2080
FBE0
ENDCHAR
STARTCHAR Y
ENCODING 89
SWIDTH 600 0
DWIDTH 14 0
BBX 13 15 0 0
BITMAP
F8F8
2020
1040
1040
0880
0880
0500
0500
0200
0200
0200
0200
0200
0200
1FC0
ENDCHAR
STARTCHAR Z
ENCODING 90
SWIDTH 600 0
DWIDTH 14 0
BBX 11 15 1 0
BITMAP
FFE0
8020
8040
8080
0100
0100
0200
0400
0800
1000
1000
2020
4020
8020
FFE0
ENDCHAR
STARTCHAR bracketleft
ENCODING 91
SWIDTH 600 0
DWIDTH 14 0
BBX 4 20 7 -5
BITMAP
F0
80
80
80
80
80
80
80
80
80
80
80
80
80
80
80
80
80
80
F0
ENDCHAR
STARTCHAR backslash
ENCODING 92
SWIDTH 600 0
DWIDTH 14 0
BBX 5 15 4 0
BITMAP
80
80
80
40
40
40
20
20
20
10
10
10
08
08
08
ENDCHAR
STARTCHAR bracketright
ENCODING 93
SWIDTH 600 0
DWIDTH 14 0
BBX 4 20 4 -5
BITMAP
F0
10
10
10
10
10
10
10
10
10
10
10
10
10
10
10
10
10
10
F0
ENDCHAR
STARTCHAR asciicircum
ENCODING 94
SWIDTH 600 0
DWIDTH 14 0
BBX 9 5 3 10
BITMAP
0800
1400
2200
4100
8080
ENDCHAR
STARTCHAR underscore
ENCODING 95
SWIDTH 600 0
DWIDTH 14 0
BBX 14 1 0 -4
BITMAP
FFFC
ENDCHAR
STARTCHAR grave
ENCODING 96
SWIDTH 600 0
DWIDTH 14 0
BBX 4 4 4 11
BITMAP
80
40
20
10
ENDCHAR
STARTCHAR a
ENCODING 97
SWIDTH 600 0
DWIDTH 14 0
BBX 11 10 1 0
BITMAP
3E00
4100
0080
0F80
3080
4080
8080
8180
8680
78E0
ENDCHAR
STARTCHAR b
ENCODING 98
SWIDTH 600 0
DWIDTH 14 0
BBX 12 15 1 0
BITMAP
E000
2000
2000
2000
2000
2780
3860
3020
2010
2010
2010
2010
3020
3860
E780
ENDCHAR
STARTCHAR c
ENCODING 99
SWIDTH 600 0
DWIDTH 14 0
BBX 10 10 2 0
BITMAP
1E40
61C0
40C0
8040
8000
8000
8040
4080
6180
1E00
ENDCHAR
STARTCHAR d
ENCODING 100
SWIDTH 600 0
DWIDTH 14 0
BBX 12 15 1 0
BITMAP
01C0
0040
0040
0040
0040
1E40
61C0
40C0
8040
8040
8040
8040
40C0
61C0
1E70
ENDCHAR
STARTCHAR e
ENCODING 101
SWIDTH 600 0
DWIDTH 14 0
BBX 10 10 2 0
BITMAP
1E00
6180
4080
8040
FFC0
8000
8000
4080
6180
1E00
ENDCHAR
STARTCHAR f
ENCODING 102
SWIDTH 600 0
DWIDTH 14 0
BBX 9 15 2 0
BITMAP
0780
0800
1000
1000
1000
FF80
1000
1000
1000
1000
1000
1000
1000
1000
FF80
ENDCHAR
STARTCHAR g
ENCODING 103
SWIDTH 600 0
DWIDTH 14 0
BBX 12 15 1 -5
BITMAP
1E70
61C0
40C0
8040
8040
8040
8040
40C0
61C0
1E40
0040
0040
0080
0180
3E00
ENDCHAR
STARTCHAR h
ENCODING 104
SWIDTH 600 0
DWIDTH 14 0
BBX 12 15 1 0
BITMAP
E000
2000
2000
2000
2000
2F00
3080
2040
2040
2040
2040
2040
2040
2040
F9F0
ENDCHAR
STARTCHAR i
ENCODING 105
SWIDTH 600 0
DWIDTH 14 0
BBX 10 15 2 0
BITMAP
0400
0400
0000
0000
0000
7C00
0400
0400
0400
0400
0400
0400
0400
0400
FFC0
ENDCHAR
STARTCHAR j
ENCODING 106
SWIDTH 600 0
DWIDTH 14 0
BBX 8 20 2 -5
BITMAP
01
01
00
00
00
FF
01
01
01
01
01
01
01
01
01
01
01
02
06
F8
ENDCHAR
STARTCHAR k
ENCODING 107
SWIDTH 600 0
DWIDTH 14 0
BBX 11 15 1 0
BITMAP
E000
2000
2000
2000
2000
23C0
2100
2200
2400
2800
3400
2200
2100
2080
F3E0
ENDCHAR
STARTCHAR l
ENCODING 108
SWIDTH 600 0
DWIDTH 14 0
BBX 9 15 3 0
BITMAP
F800
0800
0800
0800
0800
0800
0800
0800
0800
0800
0800
0800
0800
0800
FF80
ENDCHAR
STARTCHAR m
ENCODING 109
SWIDTH 600 0
DWIDTH 14 0
BBX 14 10 0 0
BITMAP
EE70
3188
2108
2108
2108
2108
2108
2108
2108
F7BC
ENDCHAR
STARTCHAR n
ENCODING 110
SWIDTH 600 0
DWIDTH 14 0
BBX 12 10 1 0
BITMAP
EF00
3080
2040
2040
2040
2040
2040
2040
2040
F9F0
ENDCHAR
STARTCHAR o
ENCODING 111
SWIDTH 600 0
DWIDTH 14 0
BBX 10 10 2 0
BITMAP
1E00
6180
4080
8040
8040
8040
8040
4080
6180
1E00
ENDCHAR
STARTCHAR p
ENCODING 112
SWIDTH 600 0
DWIDTH 14 0
BBX 12 15 1 -5
BITMAP
E780
3860
3020
2010
2010
2010
2010
3020
3860
2780
2000
2000
2000
2000
FC00
ENDCHAR
STARTCHAR q
ENCODING 113
SWIDTH 600 0
DWIDTH 14 0
BBX 12 15 1 -5
BITMAP
1E60
61C0
40C0
8040
8040
8040
8040
40C0
61C0
1E40
0040
0040
0040
0040
03F0
ENDCHAR
STARTCHAR r
ENCODING 114
SWIDTH 600 0
DWIDTH 14 0
BBX 11 10 1 0
BITMAP
73C0
1420
1800
1000
1000
1000
1000
1000
1000
FF80
ENDCHAR
STARTCHAR s
ENCODING 115
SWIDTH 600 0
DWIDTH 14 0
BBX 9 10 2 0
BITMAP
3E80
4180
8080
4000
3E00
0100
8080
8080
C100
BE00
ENDCHAR
STARTCHAR t
ENCODING 116
SWIDTH 600 0
DWIDTH 14 0
BBX 9 13 2 0
BITMAP
2000
2000
2000
FF00
2000
2000
2000
2000
2000
2000
2000
1080
0F00
ENDCHAR
STARTCHAR u
ENCODING 117
SWIDTH 600 0
DWIDTH 14 0
BBX 12 10 0 0
BITMAP
E1C0
2040
2040
2040
2040
2040
2040
2040
10C0
0F70
ENDCHAR
STARTCHAR v
ENCODING 118
SWIDTH 600 0
DWIDTH 14 0
BBX 13 10 0 0
BITMAP
F8F8
2020
1040
1040
0880
0880
0500
0500
0200
0200
ENDCHAR
STARTCHAR w
ENCODING 119
SWIDTH 600 0
DWIDTH 14 0
BBX 13 10 0 0
BITMAP
F8F8
2220
2220
2220
1540
1540
1540
0880
0880
0880
ENDCHAR
STARTCHAR x
ENCODING 120
SWIDTH 600 0
DWIDTH 14 0
BBX 11 10 1 0
BITMAP
F1E0
2080
1100
0A00
0400
0400
0A00
1100
2080
F1E0
ENDCHAR
STARTCHAR y
ENCODING 121
SWIDTH 600 0
DWIDTH 14 0
BBX 13 15 0 -5
BITMAP
F8F8
2020
2020
1040
1040
0880
0880
0500
0500
0200
0200
0400
0400
0800
3E00
ENDCHAR
STARTCHAR z
ENCODING 122
SWIDTH 600 0
DWIDTH 14 0
BBX 10 10 1 0
BITMAP
FFC0
8080
8100
0200
0400
0800
1000
2040
4040
FFC0
ENDCHAR
STARTCHAR braceleft
ENCODING 123
SWIDTH 600 0
DWIDTH 14 0
BBX 5 20 3 -5
BITMAP
18
20
20
20
20
20
20
20
20
C0
20
20
20
20
20
20
20
20
20
18
ENDCHAR
STARTCHAR bar
ENCODING 124
SWIDTH 600 0
DWIDTH 14 0
BBX 1 20 5 -5
BITMAP
80
80
80
80
80
80
80
80
80
80
80
80
80
80
80
80
80
80
80
80
ENDCHAR
STARTCHAR braceright
ENCODING 125
SWIDTH 600 0
DWIDTH 14 0
BBX 5 20 4 -5
BITMAP
C0
20
20
20
20
20
20
20
20
18
20
20
20
20
20
20
20
20
20
C0
ENDCHAR
STARTCHAR asciitilde
ENCODING 126
SWIDTH 600 0
DWIDTH 14 0
BBX 11 3 1 5
BITMAP
3820
4440
8380
ENDCHAR
STARTCHAR Adieresis
ENCODING 128
SWIDTH 600 0
DWIDTH 14 0
BBX 14 17 0 0
BITMAP
0440
0440
0100
0100
0100
0280
0280
0440
0440
0820
0820
1FF0
1010
1010
2008
2008
FC7C
ENDCHAR
STARTCHAR Aring
ENCODING 129
SWIDTH 600 0
DWIDTH 14 0
BBX 14 17 0 0
BITMAP
0380
0440
0440
0380
0100
0280
0280
0440
0440
0820
0820
1FF0
1010
1010
2008
2008
FC7C
ENDCHAR
STARTCHAR Ccedilla
ENCODING 130
SWIDTH 600 0
DWIDTH 14 0
BBX 12 19 1 -4
BITMAP
0F90
3070
6030
4010
8000
8000
8000
8000
8000
8000
8000
4000
6020
30C0
0F00
0200
0100
0100
0600
ENDCHAR
STARTCHAR Eacute
ENCODING 131
SWIDTH 600 0
DWIDTH 14 0
BBX 11 17 1 0
BITMAP
0100
0200
FFE0
2020
2020
2020
2000
2200
2200
3E00
2200
2200
2000
2020
2020
2020
FFE0
ENDCHAR
STARTCHAR Ntilde
ENCODING 132
SWIDTH 600 0
DWIDTH 14 0
BBX 13 17 0 0
BITMAP
1C40
2380
F0F8
3020
2820
2820
2420
2420
2220
2220
2120
2120
20A0
20A0
2060
2060
F820
ENDCHAR
STARTCHAR Odieresis
ENCODING 133
SWIDTH 600 0
DWIDTH 14 0
BBX 12 17 1 0
BITMAP
2040
2040
0F00
30C0
6060
4020
8010
8010
8010
8010
8010
8010
8010
4020
6060
30C0
0F00
ENDCHAR
STARTCHAR Udieresis
ENCODING 134
SWIDTH 600 0
DWIDTH 14 0
BBX 14 17 0 0
BITMAP
0480
0480
F03C
2010
2010
2010
2010
2010
2010
2010
2010
2010
2010
2010
1020
1860
0780
ENDCHAR
STARTCHAR aacute
ENCODING 135
SWIDTH 600 0
DWIDTH 14 0
BBX 11 14 1 0
BITMAP
0200
0400
0800
0000
3E00
4100
0080
0F80
3080
4080
8080
8180
8680
78E0
ENDCHAR
STARTCHAR agrave
ENCODING 136
SWIDTH 600 0
DWIDTH 14 0
BBX 11 14 2 0
BITMAP
1000
0800
0400
0000
3E00
4100
0080
0F80
3080
4080
8080
8180
8680
78E0
ENDCHAR
STARTCHAR acircumflex
ENCODING 137
SWIDTH 600 0
DWIDTH 14 0
BBX 11 16 2 0
BITMAP
0C00
1200
2100
0000
0000
0000
3E00
4100
0080
0F80
3080
4080
8080
8180
8680
78E0
ENDCHAR
STARTCHAR adieresis
ENCODING 138
SWIDTH 600 0
DWIDTH 14 0
BBX 11 14 2 0
BITMAP
2100
2100
0000
0000
3E00
4100
0080
0F80
3080
4080
8080
8180
8680
78E0
ENDCHAR
STARTCHAR atilde
ENCODING 139
SWIDTH 600 0
DWIDTH 14 0
BBX 11 14 2 0
BITMAP
3880
4700
0000
0000
3E00
4100
0080
0F80
3080
4080
8080
8180
8680
78E0
ENDCHAR
STARTCHAR aring
ENCODING 140
SWIDTH 600 0
DWIDTH 14 0
BBX 11 15 2 0
BITMAP
0C00
1200
1200
0C00
0000
3E00
4100
0080
0080
1F80
6080
8080
8180
8680
78E0
ENDCHAR
STARTCHAR ccedilla
ENCODING 141
SWIDTH 600 0
DWIDTH 14 0
BBX 10 13 2 -3
BITMAP
1E40
61C0
40C0
8040
8000
8000
8040
4080
6180
1E00
0400
0400
1800
ENDCHAR
STARTCHAR eacute
ENCODING 142
SWIDTH 600 0
DWIDTH 14 0
BBX 10 14 2 0
BITMAP
0200
0400
0800
0000
1E00
6180
4080
8040
FFC0
8000
8000
4080
6180
1E00
ENDCHAR
STARTCHAR egrave
ENCODING 143
SWIDTH 600 0
DWIDTH 14 0
BBX 10 14 2 0
BITMAP
1000
0800
0400
0000
1E00
6180
4080
8040
FFC0
8000
8000
4080
6180
1E00
ENDCHAR
STARTCHAR ecircumflex
ENCODING 144
SWIDTH 600 0
DWIDTH 14 0
BBX 10 15 2 0
BITMAP
0C00
1200
2100
0000
0000
1E00
6180
4080
8040
FFC0
8000
8000
4080
6180
1E00
ENDCHAR
STARTCHAR edieresis
ENCODING 145
SWIDTH 600 0
DWIDTH 14 0
BBX 10 14 2 0
BITMAP
2100
2100
0000
0000
1E00
6180
4080
8040
FFC0
8000
8000
4080
6180
1E00
ENDCHAR
STARTCHAR iacute
ENCODING 146
SWIDTH 600 0
DWIDTH 14 0
BBX 10 14 2 0
BITMAP
0200
0400
0800
0000
7C00
0400
0400
0400
0400
0400
0400
0400
0400
FFC0
ENDCHAR
STARTCHAR igrave
ENCODING 147
SWIDTH 600 0
DWIDTH 14 0
BBX 10 14 2 0
BITMAP
1000
0800
0400
0000
7C00
0400
0400
0400
0400
0400
0400
0400
0400
FFC0
ENDCHAR
STARTCHAR icircumflex
ENCODING 148
SWIDTH 600 0
DWIDTH 14 0
BBX 10 15 2 0
BITMAP
0C00
1200
2100
0000
0000
7C00
0400
0400
0400
0400
0400
0400
0400
0400
FFC0
ENDCHAR
STARTCHAR idieresis
ENCODING 149
SWIDTH 600 0
DWIDTH 14 0
BBX 10 14 2 0
BITMAP
1100
1100
0000
0000
7C00
0400
0400
0400
0400
0400
0400
0400
0400
FFC0
ENDCHAR
STARTCHAR ntilde
ENCODING 150
SWIDTH 600 0
DWIDTH 14 0
BBX 12 14 1 0
BITMAP
1C40
2380
0000
0000
EF00
3080
2040
2040
2040
2040
2040
2040
2040
F9F0
ENDCHAR
STARTCHAR oacute
ENCODING 151
SWIDTH 600 0
DWIDTH 14 0
BBX 10 14 2 0
BITMAP
0200
0400
0800
0000
1E00
6180
4080
8040
8040
8040
8040
4080
6180
1E00
ENDCHAR
STARTCHAR ograve
ENCODING 152
SWIDTH 600 0
DWIDTH 14 0
BBX 10 14 2 0
BITMAP
0800
0400
0200
0000
1E00
6180
4080
8040
8040
8040
8040
4080
6180
1E00
ENDCHAR
STARTCHAR ocircumflex
ENCODING 153
SWIDTH 600 0
DWIDTH 14 0
BBX 10 15 2 0
BITMAP
0C00
1200
2100
0000
0000
1E00
6180
4080
8040
8040
8040
8040
4080
6180
1E00
ENDCHAR
STARTCHAR odieresis
ENCODING 154
SWIDTH 600 0
DWIDTH 14 0
BBX 10 13 2 0
BITMAP
1200
1200
0000
1E00
6180
4080
8040
8040
8040
8040
4080
6180
1E00
ENDCHAR
STARTCHAR otilde
ENCODING 155
SWIDTH 600 0
DWIDTH 14 0
BBX 10 14 2 0
BITMAP
3880
4700
0000
0000
1E00
6180
4080
8040
8040
8040
8040
4080
6180
1E00
ENDCHAR
STARTCHAR uacute
ENCODING 156
SWIDTH 600 0
DWIDTH 14 0
BBX 12 14 0 0
BITMAP
0100
0200
0400
0000
E1C0
2040
2040
2040
2040
2040
2040
2040
10C0
0F70
ENDCHAR
STARTCHAR ugrave
ENCODING 157
SWIDTH 600 0
DWIDTH 14 0
BBX 12 14 0 0
BITMAP
0800
0400
0200
0000
E1C0
2040
2040
2040
2040
2040
2040
2040
10C0
0F70
ENDCHAR
STARTCHAR ucircumflex
ENCODING 158
SWIDTH 600 0
DWIDTH 14 0
BBX 12 15 0 0
BITMAP
0600
0900
1080
0000
0000
E1C0
2040
2040
2040
2040
2040
2040
2040
10C0
0F70
ENDCHAR
STARTCHAR udieresis
ENCODING 159
SWIDTH 600 0
DWIDTH 14 0
BBX 12 14 0 0
BITMAP
1100
1100
0000
0000
E1C0
2040
2040
2040
2040
2040
2040
2040
10C0
0F70
ENDCHAR
STARTCHAR dagger
ENCODING 160
SWIDTH 600 0
DWIDTH 14 0
BBX 9 19 1 -4
BITMAP
0800
0800
0800
0800
0800
FF80
0800
0800
0800
0800
0800
0800
0800
0800
0800
0800
0800
0800
0800
ENDCHAR
STARTCHAR degree
ENCODING 161
SWIDTH 400 0
DWIDTH 10 0
BBX 5 5 3 11
BITMAP
70
88
88
88
70
ENDCHAR
STARTCHAR cent
ENCODING 162
SWIDTH 600 0
DWIDTH 14 0
BBX 8 15 3 0
BITMAP
08
08
08
1C
63
41
80
80
80
41
63
1C
08
08
08
ENDCHAR
STARTCHAR sterling
ENCODING 163
SWIDTH 600 0
DWIDTH 14 0
BBX 11 15 1 0
BITMAP
0E00
1100
2000
2000
2000
2000
2000
FC00
2000
2000
2000
2020
2020
2040
FF80
ENDCHAR
STARTCHAR section
ENCODING 164
SWIDTH 600 0
DWIDTH 14 0
BBX 9 18 2 -3
BITMAP
3E00
4100
8080
8080
8000
6000
9800
8600
8100
6080
1880
0680
0100
0080
8080
8080
4100
3E00
ENDCHAR
STARTCHAR bullet
ENCODING 165
SWIDTH 600 0
DWIDTH 14 0
BBX 6 6 2 4
BITMAP
78
FC
FC
FC
FC
78
ENDCHAR
STARTCHAR paragraph
ENCODING 166
SWIDTH 600 0
DWIDTH 14 0
BBX 11 20 2 -5
BITMAP
1FE0
2480
4480
8480
8480
8480
8480
4480
2480
1C80
0480
0480
0480
0480
0480
0480
0480
0480
0480
1CE0
ENDCHAR
STARTCHAR germandbls
ENCODING 167
SWIDTH 600 0
DWIDTH 14 0
BBX 11 15 0 0
BITMAP
0F00
1080
2040
2040
2040
2080
2380
2040
2020
2020
2020
2020
2420
2440
E380
ENDCHAR
STARTCHAR registered
ENCODING 168
SWIDTH 600 0
DWIDTH 19 0
BBX 16 16 1 0
BITMAP
07E0
1818
2004
4002
4FC2
8421
8421
8421
87C1
8441
8421
4F12
4002
2004
1818
07E0
ENDCHAR
STARTCHAR copyright
ENCODING 169
SWIDTH 600 0
DWIDTH 19 0
BBX 16 16 1 0
BITMAP
07E0
1818
2004
4002
43A2
8461
8821
8801
8801
8801
8421
43C2
4002
2004
1818
07E0
ENDCHAR
STARTCHAR trademark
ENCODING 170
SWIDTH 600 0
DWIDTH 21 0
BBX 19 7 0 8
BITMAP
FEC060
9260C0
105140
104A40
104440
104440
3CE0E0
ENDCHAR
STARTCHAR acute
ENCODING 171
SWIDTH 600 0
DWIDTH 14 0
BBX 4 4 5 11
BITMAP
10
20
40
80
ENDCHAR
STARTCHAR dieresis
ENCODING 172
SWIDTH 600 0
DWIDTH 14 0
BBX 6 2 3 13
BITMAP
84
84
ENDCHAR
STARTCHAR notequal
ENCODING 173
SWIDTH 549 0
DWIDTH 13 0
BBX 11 9 0 1
BITMAP
0040
0080
FFE0
0200
0400
0800
FFE0
2000
4000
ENDCHAR
STARTCHAR AE
ENCODING 174
SWIDTH 600 0
DWIDTH 14 0
BBX 14 15 0 0
BITMAP
03FC
0304
0504
0504
0500
0900
0910
11F0
1110
3F00
2100
2104
4104
4104
F1FC
ENDCHAR
STARTCHAR Oslash
ENCODING 175
SWIDTH 600 0
DWIDTH 14 0
BBX 12 15 0 0
BITMAP
0F10
30E0
6060
40A0
8090
8110
8210
8210
8410
8810
8810
5020
6060
70C0
8F00
ENDCHAR
STARTCHAR infinity
ENCODING 176
SWIDTH 713 0
DWIDTH 17 0
BBX 14 6 1 4
BITMAP
3870
4488
8304
8304
4488
3870
ENDCHAR
STARTCHAR plusminus
ENCODING 177
SWIDTH 549 0
DWIDTH 14 0
BBX 11 11 1 0
BITMAP
0400
0400
0400
0400
0400
FFE0
0400
0400
0400
0400
FFE0
ENDCHAR
STARTCHAR lessequal
ENCODING 178
SWIDTH 549 0
DWIDTH 14 0
BBX 10 10 1 0
BITMAP
00C0
0300
0C00
3000
C000
3000
0C00
0300
00C0
FFC0
ENDCHAR
STARTCHAR greaterequal
ENCODING 179
SWIDTH 549 0
DWIDTH 14 0
BBX 10 10 1 0
BITMAP
C000
3000
0C00
0300
00C0
0300
0C00
3000
C000
FFC0
ENDCHAR
STARTCHAR yen
ENCODING 180
SWIDTH 600 0
DWIDTH 14 0
BBX 13 15 0 0
BITMAP
F8F8
2020
1040
1040
0880
0880
0500
3FE0
0200
0200
3FE0
0200
0200
0200
1FC0
ENDCHAR
STARTCHAR mu
ENCODING 181
SWIDTH 576 0
DWIDTH 14 0
BBX 10 15 2 -5
BITMAP
8100
8100
8100
8100
8100
8100
8100
8100
C100
BEC0
8000
8000
8000
8000
8000
ENDCHAR
STARTCHAR partialdiff
ENCODING 182
SWIDTH 494 0
DWIDTH 12 0
BBX 9 16 1 0
BITMAP
3800
0600
0100
0100
0080
0080
3C80
4280
8180
8080
8080
8080
8080
8100
4200
3C00
ENDCHAR
STARTCHAR summation
ENCODING 183
SWIDTH 713 0
DWIDTH 17 0
BBX 12 17 1 -1
BITMAP
FFF0
4010
2010
1010
0800
0400
0200
0100
0100
0200
0400
0800
1000
2010
4010
8010
FFF0
ENDCHAR
STARTCHAR product
ENCODING 184
SWIDTH 823 0
DWIDTH 20 0
BBX 16 18 1 -2
BITMAP
FFFF
2004
2004
2004
2004
2004
2004
2004
2004
2004
2004
2004
2004
2004
2004
2004
2004
FC3F
ENDCHAR
STARTCHAR pi
ENCODING 185
SWIDTH 549 0
DWIDTH 14 0
BBX 12 10 0 0
BITMAP
3FF0
5040
9040
1040
1040
1040
1040
1040
1040
7070
ENDCHAR
STARTCHAR integral
ENCODING 186
SWIDTH 274 0
DWIDTH 7 0
BBX 7 19 0 -5
BITMAP
06
0A
10
10
10
10
10
10
10
10
10
10
10
10
10
10
10
A0
C0
ENDCHAR
STARTCHAR ordfeminine
ENCODING 187
SWIDTH 600 0
DWIDTH 14 0
BBX 7 9 3 6
BITMAP
38
44
04
7C
84
8C
76
00
FE
ENDCHAR
STARTCHAR ordmasculine
ENCODING 188
SWIDTH 600 0
DWIDTH 14 0
BBX 7 9 2 6
BITMAP
38
44
82
82
82
44
38
00
FE
ENDCHAR
STARTCHAR Omega
ENCODING 189
SWIDTH 768 0
DWIDTH 18 0
BBX 15 15 1 0
BITMAP
07C0
1830
2008
2008
4004
4004
4004
4004
4004
4004
2008
1010
8822
4444
7C7C
ENDCHAR
STARTCHAR ae
ENCODING 190
SWIDTH 600 0
DWIDTH 14 0
BBX 14 10 0 0
BITMAP
3CF0
4308
0204
0E04
33FC
4200
8200
8200
8504
78F8
ENDCHAR
STARTCHAR oslash
ENCODING 191
SWIDTH 600 0
DWIDTH 14 0
BBX 10 10 1 0
BITMAP
1F40
6180
41C0
8240
8440
8840
9040
6080
6180
9E00
ENDCHAR
STARTCHAR questiondown
ENCODING 192
SWIDTH 600 0
DWIDTH 14 0
BBX 9 15 2 -5
BITMAP
0800
0800
0000
0800
0800
0800
1000
2000
4000
8000
8080
8080
8080
4100
3E00
ENDCHAR
STARTCHAR exclamdown
ENCODING 193
SWIDTH 600 0
DWIDTH 14 0
BBX 1 15 5 -5
BITMAP
80
80
00
00
80
80
80
80
80
80
80
80
80
80
80
ENDCHAR
STARTCHAR logicalnot
ENCODING 194
SWIDTH 600 0
DWIDTH 17 0
BBX 14 5 1 1
BITMAP
FFFC
0004
0004
0004
0004
ENDCHAR
STARTCHAR radical
ENCODING 195
SWIDTH 549 0
DWIDTH 13 0
BBX 12 16 0 0
BITMAP
0010
0010
0020
0020
0040
0040
0080
0080
4100
C100
2200
2200
1400
1400
0800
0800
ENDCHAR
STARTCHAR florin
ENCODING 196
SWIDTH 600 0
DWIDTH 14 0
BBX 7 20 3 -5
BITMAP
06
08
10
10
10
10
FE
10
10
10
10
10
10
10
10
10
10
10
20
C0
ENDCHAR
STARTCHAR approxequal
ENCODING 197
SWIDTH 549 0
DWIDTH 13 0
BBX 12 6 0 3
BITMAP
7C10
83E0
0000
0000
7C10
83E0
ENDCHAR
STARTCHAR Delta
ENCODING 198
SWIDTH 612 0
DWIDTH 15 0
BBX 15 16 0 0
BITMAP
0100
0100
0280
0280
0440
0440
0820
0820
1010
1010
2008
2008
4004
4004
8002
FFFE
ENDCHAR
STARTCHAR guillemotleft
ENCODING 199
SWIDTH 600 0
DWIDTH 14 0
BBX 10 9 1 1
BITMAP
0840
1080
2100
4200
8400
4200
2100
1080
0840
ENDCHAR
STARTCHAR guillemotright
ENCODING 200
SWIDTH 600 0
DWIDTH 14 0
BBX 10 9 1 1
BITMAP
8400
4200
2100
1080
0840
1080
2100
4200
8400
ENDCHAR
STARTCHAR ellipsis
ENCODING 201
SWIDTH 600 0
DWIDTH 14 0
BBX 11 2 1 0
BITMAP
8420
8420
ENDCHAR
STARTCHAR nbspace
ENCODING 202
SWIDTH 600 0
DWIDTH 14 0
BBX 0 0 14 -5
BITMAP
ENDCHAR
STARTCHAR Agrave
ENCODING 203
SWIDTH 600 0
DWIDTH 14 0
BBX 14 17 0 0
BITMAP
0200
0100
0380
0100
0100
0280
0280
0440
0440
0820
0820
1FF0
1010
1010
2008
2008
FC7C
ENDCHAR
STARTCHAR Atilde
ENCODING 204
SWIDTH 600 0
DWIDTH 14 0
BBX 14 17 0 0
BITMAP
0710
08E0
0300
0100
0100
0280
0280
0440
0440
0820
0820
1FF0
1010
1010
2008
2008
FC7C
ENDCHAR
STARTCHAR Otilde
ENCODING 205
SWIDTH 600 0
DWIDTH 14 0
BBX 12 17 1 0
BITMAP
1C40
2380
0F00
30C0
6060
4020
8010
8010
8010
8010
8010
8010
8010
4020
6060
30C0
0F00
ENDCHAR
STARTCHAR OE
ENCODING 206
SWIDTH 600 0
DWIDTH 14 0
BBX 14 15 0 0
BITMAP
0FFC
3104
6104
4104
8100
8110
8110
81F0
8110
8110
8100
4104
6104
3104
0FFC
ENDCHAR
STARTCHAR oe
ENCODING 207
SWIDTH 600 0
DWIDTH 14 0
BBX 14 10 0 0
BITMAP
1C70
6288
4104
8104
81FC
8100
8100
4100
6284
1C78
ENDCHAR
STARTCHAR endash
ENCODING 208
SWIDTH 600 0
DWIDTH 14 0
BBX 10 1 0 5
BITMAP
FFC0
ENDCHAR
STARTCHAR emdash
ENCODING 209
SWIDTH 600 0
DWIDTH 14 0
BBX 13 1 0 5
BITMAP
FFF8
ENDCHAR
STARTCHAR quotedblleft
ENCODING 210
SWIDTH 600 0
DWIDTH 14 0
BBX 8 5 3 10
BITMAP
CC
CC
66
22
11
ENDCHAR
STARTCHAR quotedblright
ENCODING 211
SWIDTH 600 0
DWIDTH 14 0
BBX 8 5 2 10
BITMAP
33
33
66
44
88
ENDCHAR
STARTCHAR quoteleft
ENCODING 212
SWIDTH 600 0
DWIDTH 14 0
BBX 4 5 3 10
BITMAP
C0
C0
60
20
10
ENDCHAR
STARTCHAR quoteright
ENCODING 213
SWIDTH 600 0
DWIDTH 14 0
BBX 4 5 2 10
BITMAP
30
30
60
40
80
ENDCHAR
STARTCHAR divide
ENCODING 214
SWIDTH 549 0
DWIDTH 13 0
BBX 12 9 0 1
BITMAP
0600
0600
0000
0000
FFF0
0000
0000
0600
0600
ENDCHAR
STARTCHAR lozenge
ENCODING 215
SWIDTH 494 0
DWIDTH 12 0
BBX 9 16 1 0
BITMAP
0800
0800
1400
1400
2200
4100
4100
8080
8080
4100
4100
2200
1400
1400
0800
0800
ENDCHAR
STARTCHAR ydieresis
ENCODING 216
SWIDTH 600 0
DWIDTH 14 0
BBX 13 18 0 -5
BITMAP
0880
0000
0000
F8F8
2020
2020
1040
1040
0880
0880
0500
0500
0200
0200
0400
0400
0800
3E00
ENDCHAR
STARTCHAR Ydieresis
ENCODING 217
SWIDTH 600 0
DWIDTH 14 0
BBX 13 17 0 0
BITMAP
0880
0000
F8F8
2020
1040
1040
0880
0880
0500
0500
0200
0200
0200
0200
0200
0200
1FC0
ENDCHAR
STARTCHAR fraction
ENCODING 218
SWIDTH 600 0
DWIDTH 14 0
BBX 5 15 4 0
BITMAP
08
08
08
10
10
10
20
20
20
40
40
40
80
80
80
ENDCHAR
STARTCHAR currency
ENCODING 219
SWIDTH 600 0
DWIDTH 14 0
BBX 10 10 2 3
BITMAP
9E40
6180
4080
8040
8040
8040
8040
4080
6180
9E40
ENDCHAR
STARTCHAR guilsinglleft
ENCODING 220
SWIDTH 600 0
DWIDTH 14 0
BBX 5 9 3 1
BITMAP
08
10
20
40
80
40
20
10
08
ENDCHAR
STARTCHAR guilsinglright
ENCODING 221
SWIDTH 600 0
DWIDTH 14 0
BBX 5 9 5 1
BITMAP
80
40
20
10
08
10
20
40
80
ENDCHAR
STARTCHAR fi
ENCODING 222
SWIDTH 600 0
DWIDTH 14 0
BBX 13 15 0 0
BITMAP
07C0
0840
1000
1000
1000
FF40
1040
1040
1040
1040
1040
1040
1040
1040
FFF8
ENDCHAR
STARTCHAR fl
ENCODING 223
SWIDTH 600 0
DWIDTH 14 0
BBX 13 15 0 0
BITMAP
07C0
0840
1040
1040
1040
FF40
1040
1040
1040
1040
1040
1040
1040
1040
FFF8
ENDCHAR
STARTCHAR daggerdbl
ENCODING 224
SWIDTH 600 0
DWIDTH 14 0
BBX 9 19 2 -4
BITMAP
0800
0800
0800
0800
FF80
0800
0800
0800
0800
0800
0800
0800
0800
0800
FF80
0800
0800
0800
0800
ENDCHAR
STARTCHAR periodcentered
ENCODING 225
SWIDTH 600 0
DWIDTH 14 0
BBX 1 2 6 6
BITMAP
80
80
ENDCHAR
STARTCHAR quotesinglbase
ENCODING 226
SWIDTH 600 0
DWIDTH 14 0
BBX 4 5 3 -3
BITMAP
30
30
60
40
80
ENDCHAR
STARTCHAR quotedblbase
ENCODING 227
SWIDTH 600 0
DWIDTH 14 0
BBX 8 5 2 -3
BITMAP
33
33
66
44
88
ENDCHAR
STARTCHAR perthousand
ENCODING 228
SWIDTH 600 0
DWIDTH 14 0
BBX 13 14 0 0
BITMAP
3010
4820
4840
3080
0100
0200
0400
0800
1000
2000
4630
8948
0948
0630
ENDCHAR
STARTCHAR Acircumflex
ENCODING 229
SWIDTH 600 0
DWIDTH 14 0
BBX 14 17 0 0
BITMAP
0100
0280
0540
0100
0100
0280
0280
0440
0440
0820
0820
1FF0
1010
1010
2008
2008
FC7C
ENDCHAR
STARTCHAR Ecircumflex
ENCODING 230
SWIDTH 600 0
DWIDTH 14 0
BBX 11 17 1 0
BITMAP
0400
0A00
FFE0
2020
2020
2020
2000
2200
2200
3E00
2200
2200
2000
2020
2020
2020
FFE0
ENDCHAR
STARTCHAR Aacute
ENCODING 231
SWIDTH 600 0
DWIDTH 14 0
BBX 14 17 0 0
BITMAP
0040
0080
0300
0100
0100
0280
0280
0440
0440
0820
0820
1FF0
1010
1010
2008
2008
FC7C
ENDCHAR
STARTCHAR Edieresis
ENCODING 232
SWIDTH 600 0
DWIDTH 14 0
BBX 11 17 1 0
BITMAP
0900
0000
FFE0
2020
2020
2020
2000
2200
2200
3E00
2200
2200
2000
2020
2020
2020
FFE0
ENDCHAR
STARTCHAR Egrave
ENCODING 233
SWIDTH 600 0
DWIDTH 14 0
BBX 11 17 1 0
BITMAP
0400
0200
FFE0
2020
2020
2020
2000
2200
2200
3E00
2200
2200
2000
2020
2020
2020
FFE0
ENDCHAR
STARTCHAR Iacute
ENCODING 234
SWIDTH 600 0
DWIDTH 14 0
BBX 9 17 2 0
BITMAP
0200
0400
FF80
0800
0800
0800
0800
0800
0800
0800
0800
0800
0800
0800
0800
0800
FF80
ENDCHAR
STARTCHAR Icircumflex
ENCODING 235
SWIDTH 600 0
DWIDTH 14 0
BBX 9 17 2 0
BITMAP
0800
1400
FF80
0800
0800
0800
0800
0800
0800
0800
0800
0800
0800
0800
0800
0800
FF80
ENDCHAR
STARTCHAR Idieresis
ENCODING 236
SWIDTH 600 0
DWIDTH 14 0
BBX 9 17 2 0
BITMAP
2200
0000
FF80
0800
0800
0800
0800
0800
0800
0800
0800
0800
0800
0800
0800
0800
FF80
ENDCHAR
STARTCHAR Igrave
ENCODING 237
SWIDTH 600 0
DWIDTH 14 0
BBX 9 17 2 0
BITMAP
2000
1000
FF80
0800
0800
0800
0800
0800
0800
0800
0800
0800
0800
0800
0800
0800
FF80
ENDCHAR
STARTCHAR Oacute
ENCODING 238
SWIDTH 600 0
DWIDTH 14 0
BBX 12 17 1 0
BITMAP
0100
0200
0F00
30C0
6060
4020
8010
8010
8010
8010
8010
8010
8010
4020
6060
30C0
0F00
ENDCHAR
STARTCHAR Ocircumflex
ENCODING 239
SWIDTH 600 0
DWIDTH 14 0
BBX 12 17 1 0
BITMAP
0600
0900
1F80
30C0
6060
4020
8010
8010
8010
8010
8010
8010
8010
4020
6060
30C0
0F00
ENDCHAR
STARTCHAR apple
ENCODING 240
SWIDTH 790 0
DWIDTH 19 0
BBX 15 17 2 0
BITMAP
00E0
01C0
0180
1D38
7EFC
7FFE
FFF8
FFF0
FFF0
FFF0
FFF0
FFF8
7FFE
7FFE
3FFC
1FF8
0E70
ENDCHAR
STARTCHAR Ograve
ENCODING 241
SWIDTH 600 0
DWIDTH 14 0
BBX 12 17 1 0
BITMAP
0800
0400
0F00
30C0
6060
4020
8010
8010
8010
8010
8010
8010
8010
4020
6060
30C0
0F00
ENDCHAR
STARTCHAR Uacute
ENCODING 242
SWIDTH 600 0
DWIDTH 14 0
BBX 14 17 0 0
BITMAP
0080
0100
F03C
2010
2010
2010
2010
2010
2010
2010
2010
2010
2010
2010
1020
1860
0780
ENDCHAR
STARTCHAR Ucircumflex
ENCODING 243
SWIDTH 600 0
DWIDTH 14 0
BBX 14 17 0 0
BITMAP
0100
0280
F03C
2010
2010
2010
2010
2010
2010
2010
2010
2010
2010
2010
1020
1860
0780
ENDCHAR
STARTCHAR Ugrave
ENCODING 244
SWIDTH 600 0
DWIDTH 14 0
BBX 14 17 0 0
BITMAP
0200
0100
F03C
2010
2010
2010
2010
2010
2010
2010
2010
2010
2010
2010
1020
1860
0780
ENDCHAR
STARTCHAR dotlessi
ENCODING 245
SWIDTH 600 0
DWIDTH 14 0
BBX 10 10 2 0
BITMAP
7C00
0400
0400
0400
0400
0400
0400
0400
0400
FFC0
ENDCHAR
STARTCHAR circumflex
ENCODING 246
SWIDTH 600 0
DWIDTH 14 0
BBX 5 3 3 12
BITMAP
20
50
88
ENDCHAR
STARTCHAR tilde
ENCODING 247
SWIDTH 600 0
DWIDTH 14 0
BBX 7 2 2 12
BITMAP
62
9C
ENDCHAR
STARTCHAR macron
ENCODING 248
SWIDTH 600 0
DWIDTH 14 0
BBX 7 1 3 13
BITMAP
FE
ENDCHAR
STARTCHAR breve
ENCODING 249
SWIDTH 600 0
DWIDTH 14 0
BBX 6 2 4 12
BITMAP
84
78
ENDCHAR
STARTCHAR dotaccent
ENCODING 250
SWIDTH 600 0
DWIDTH 14 0
BBX 1 2 6 12
BITMAP
80
80
ENDCHAR
STARTCHAR ring
ENCODING 251
SWIDTH 600 0
DWIDTH 14 0
BBX 4 4 4 10
BITMAP
60
90
90
60
ENDCHAR
STARTCHAR cedilla
ENCODING 252
SWIDTH 600 0
DWIDTH 14 0
BBX 5 5 4 -4
BITMAP
20
30
08
88
70
ENDCHAR
STARTCHAR hungarumlaut
ENCODING 253
SWIDTH 600 0
DWIDTH 14 0
BBX 6 3 3 11
BITMAP
24
48
90
ENDCHAR
STARTCHAR ogonek
ENCODING 254
SWIDTH 600 0
DWIDTH 14 0
BBX 5 4 4 -4
BITMAP
60
80
88
70
ENDCHAR
STARTCHAR caron
ENCODING 255
SWIDTH 600 0
DWIDTH 14 0
BBX 5 3 4 14
BITMAP
88
50
20
ENDCHAR
ENDFONT
